<svg xmlns="http://www.w3.org/2000/svg">

    //!clean this later.


    <!-- //!later when get done with the work, ensure to compress teh svg file though svgmg or something so that things gets faster. -->

    <!-- //!i have seen at palce there is a defautl fill, it should be inherit that is more scalable. -->
    <symbol id="double-dots" viewBox="0 0 60 24">
        <circle cx="18" cy="12" r="8" fill="black" />
        <circle cx="42" cy="12" r="8" fill="black" />
    </symbol>


    <symbol id="whatsapp-icon" viewBox="0 0 32 32">
        <path fill-rule="evenodd" clip-rule="evenodd"
            d="M16 31C23.732 31 30 24.732 30 17C30 9.26801 23.732 3 16 3C8.26801 3 2 9.26801 2 17C2 19.5109 2.661 21.8674 3.81847 23.905L2 31L9.31486 29.3038C11.3014 30.3854 13.5789 31 16 31ZM16 28.8462C22.5425 28.8462 27.8462 23.5425 27.8462 17C27.8462 10.4576 22.5425 5.15385 16 5.15385C9.45755 5.15385 4.15385 10.4576 4.15385 17C4.15385 19.5261 4.9445 21.8675 6.29184 23.7902L5.23077 27.7692L9.27993 26.7569C11.1894 28.0746 13.5046 28.8462 16 28.8462Z"
            fill="#BFC8D0" />

        <path
            d="M28 16C28 22.6274 22.6274 28 16 28C13.4722 28 11.1269 27.2184 9.19266 25.8837L5.09091 26.9091L6.16576 22.8784C4.80092 20.9307 4 18.5589 4 16C4 9.37258 9.37258 4 16 4C22.6274 4 28 9.37258 28 16Z"
            fill="url(#paint0_linear)" />

        <path fill-rule="evenodd" clip-rule="evenodd"
            d="M16 30C23.732 30 30 23.732 30 16C30 8.26801 23.732 2 16 2C8.26801 2 2 8.26801 2 16C2 18.5109 2.661 20.8674 3.81847 22.905L2 30L9.31486 28.3038C11.3014 29.3854 13.5789 30 16 30ZM16 27.8462C22.5425 27.8462 27.8462 22.5425 27.8462 16C27.8462 9.45755 22.5425 4.15385 16 4.15385C9.45755 4.15385 4.15385 9.45755 4.15385 16C4.15385 18.5261 4.9445 20.8675 6.29184 22.7902L5.23077 26.7692L9.27993 25.7569C11.1894 27.0746 13.5046 27.8462 16 27.8462Z"
            fill="white" />

        <path
            d="M12.5 9.49989C12.1672 8.83131 11.6565 8.8905 11.1407 8.8905C10.2188 8.8905 8.78125 9.99478 8.78125 12.05C8.78125 13.7343 9.52345 15.578 12.0244 18.3361C14.438 20.9979 17.6094 22.3748 20.2422 22.3279C22.875 22.2811 23.4167 20.0154 23.4167 19.2503C23.4167 18.9112 23.2062 18.742 23.0613 18.696C22.1641 18.2654 20.5093 17.4631 20.1328 17.3124C19.7563 17.1617 19.5597 17.3656 19.4375 17.4765C19.0961 17.8018 18.4193 18.7608 18.1875 18.9765C17.9558 19.1922 17.6103 19.083 17.4665 19.0015C16.9374 18.7892 15.5029 18.1511 14.3595 17.0426C12.9453 15.6718 12.8623 15.2001 12.5959 14.7803C12.3828 14.4444 12.5392 14.2384 12.6172 14.1483C12.9219 13.7968 13.3426 13.254 13.5313 12.9843C13.7199 12.7145 13.5702 12.305 13.4803 12.05C13.0938 10.953 12.7663 10.0347 12.5 9.49989Z"
            fill="white" />

        <defs>
            <linearGradient id="paint0_linear" x1="26.5" y1="7" x2="4" y2="28" gradientUnits="userSpaceOnUse">
                <stop stop-color="#5BD066" />
                <stop offset="1" stop-color="#27B43E" />
            </linearGradient>
        </defs>
    </symbol>

    <symbol id="hamburger" viewBox="0 0 20 20">
        <path d="M3 5h14M3 10h14M3 15h14" stroke="currentColor" strokeWidth="1.8" strokeLinecap="round" />
    </symbol>

    <symbol id="cross" viewBox="0 0 17 17">
        <g clip-path="url(#clip0_4259_325)">
            <rect y="14.8491" width="21" height="2.3" transform="rotate(-45 0 14.8491)" fill="black" />
            <rect x="1.62646" width="21" height="2.3" transform="rotate(45 1.62646 0)" fill="black" />
        </g>
        <defs>
            <clipPath id="clip0_4259_325">
                <rect width="16.4757" height="16.4757" fill="white" />
            </clipPath>
        </defs>
    </symbol>

    <symbol id="chevron-arrow-right" viewBox="0 0 32 32">
        <path
            d="M11.1 30.4c-1.2 0-2.3-.4-3.2-1.3-1.8-1.8-1.8-4.6 0-6.4l6.7-6.7-6.7-6.7c-1.8-1.8-1.8-4.6 0-6.4s4.6-1.8 6.4 0l9.9 9.9c.9.9 1.3 2 1.3 3.2s-.5 2.3-1.3 3.2l-9.9 9.9c-.9.9-2.1 1.3-3.2 1.3z" />
    </symbol>




    <symbol id="heart" viewBox="0 0 68 68">
        <mask id="path-1-inside-1_4086_192" fill="white">
            <path
                d="M10.492 23.083C16.2866 17.2884 25.6819 17.2878 31.4766 23.0823L33.5751 25.1808L35.673 23.083C41.4675 17.2884 50.8629 17.2879 56.6576 23.0823C62.4523 28.877 62.4523 38.2729 56.6576 44.0676L33.5751 67.1501L10.492 44.0669C4.6976 38.2723 4.69758 28.8776 10.492 23.083Z" />
        </mask>
        <path
            d="M10.492 23.083L9.59041 22.1814L9.59039 22.1814L10.492 23.083ZM31.4766 23.0823L32.3782 22.1807L32.3782 22.1807L31.4766 23.0823ZM33.5751 25.1808L32.6736 26.0824L33.5751 26.9839L34.4767 26.0824L33.5751 25.1808ZM56.6576 23.0823L57.5592 22.1807L57.5592 22.1807L56.6576 23.0823ZM33.5751 67.1501L32.6736 68.0517L33.5751 68.9532L34.4767 68.0517L33.5751 67.1501ZM10.492 44.0669L9.59039 44.9685L9.59041 44.9685L10.492 44.0669ZM10.492 23.083L11.3935 23.9845C16.6903 18.6878 25.2783 18.6874 30.5751 23.9839L31.4766 23.0823L32.3782 22.1807C26.0855 15.8883 15.8829 15.889 9.59041 22.1814L10.492 23.083ZM31.4766 23.0823L30.575 23.9838L32.6736 26.0824L33.5751 25.1808L34.4767 24.2793L32.3782 22.1807L31.4766 23.0823ZM33.5751 25.1808L34.4767 26.0824L36.5745 23.9845L35.673 23.083L34.7714 22.1814L32.6736 24.2793L33.5751 25.1808ZM35.673 23.083L36.5745 23.9845C41.8712 18.6878 50.4593 18.6875 55.7561 23.9839L56.6576 23.0823L57.5592 22.1807C51.2665 15.8884 41.0639 15.889 34.7714 22.1814L35.673 23.083ZM56.6576 23.0823L55.7561 23.9838C61.0528 29.2806 61.0528 37.8693 55.7561 43.1661L56.6576 44.0676L57.5592 44.9692C63.8518 38.6766 63.8518 28.4733 57.5592 22.1807L56.6576 23.0823ZM56.6576 44.0676L55.7561 43.1661L32.6736 66.2485L33.5751 67.1501L34.4767 68.0517L57.5592 44.9692L56.6576 44.0676ZM33.5751 67.1501L34.4767 66.2485L11.3935 43.1654L10.492 44.0669L9.59041 44.9685L32.6736 68.0517L33.5751 67.1501ZM10.492 44.0669L11.3936 43.1654C6.09707 37.8687 6.09706 29.2812 11.3936 23.9845L10.492 23.083L9.59039 22.1814C3.29811 28.474 3.29812 38.6759 9.59039 44.9685L10.492 44.0669Z"
            fill="#DCA639" mask="url(#path-1-inside-1_4086_192)" />
    </symbol>




    <symbol id="arow-right" fill="none" viewBox="0 0 16 16">
        <path stroke-linecap="round" stroke-linejoin="round" stroke-width="1.6"
            d="M3.3335 8.00004h9.3333M8.00016 12.6667l4.66664-4.66666-4.66664-4.66667" />
    </symbol>



    <symbol id="double-quotes" viewBox="0 0 24 24">
        <path fill="none" d="M0 0h24v24H0z" />
        <path
            d="M4.583 17.321C3.553 16.227 3 15 3 13.011c0-3.5 2.457-6.637 6.03-8.188l.893 1.378c-3.335 1.804-3.987 4.145-4.247 5.621.537-.278 1.24-.375 1.929-.311 1.804.167 3.226 1.648 3.226 3.489a3.5 3.5 0 0 1-3.5 3.5c-1.073 0-2.099-.49-2.748-1.179zm10 0C13.553 16.227 13 15 13 13.011c0-3.5 2.457-6.637 6.03-8.188l.893 1.378c-3.335 1.804-3.987 4.145-4.247 5.621.537-.278 1.24-.375 1.929-.311 1.804.167 3.226 1.648 3.226 3.489a3.5 3.5 0 0 1-3.5 3.5c-1.073 0-2.099-.49-2.748-1.179z" />
    </symbol>

    <symbol id="telephone" viewBox="0 0 384 384">
        <path
            d="M353.188 252.052c-23.51 0-46.594-3.677-68.469-10.906-10.719-3.656-23.896-.302-30.438 6.417l-43.177 32.594c-50.073-26.729-80.917-57.563-107.281-107.26l31.635-42.052c8.219-8.208 11.167-20.198 7.635-31.448-7.26-21.99-10.948-45.063-10.948-68.583C132.146 13.823 118.323 0 101.333 0h-70.52C13.823 0 0 13.823 0 30.813 0 225.563 158.438 384 353.188 384c16.99 0 30.813-13.823 30.813-30.813v-70.323c-.001-16.989-13.824-30.812-30.813-30.812"
            data-original="#000000" />
    </symbol>
    <symbol id="mail-envelop" viewBox="0 0 512 512">
        <path
            d="M256 345.944a14.98 14.98 0 0 1-8.976-2.982L90 225.683V451h332V225.683l-157.024 117.28a14.985 14.985 0 0 1-8.976 2.981M60 203.276 0 158.463V406c0 24.813 20.187 45 45 45h15zm392 0V451h15c24.813 0 45-20.187 45-45V158.463zM442.02 61H69.979L256 199.785z"
            data-original="#000000" />
        <path
            d="M486.33 65.371 264.97 230.523c-2.661 1.985-5.815 2.977-8.97 2.977s-6.309-.992-8.97-2.977L25.67 65.371C10.504 72.616 0 88.103 0 106v16.843a14.904 14.904 0 0 1 6.024 2.675L256 312.222l249.976-186.704a14.917 14.917 0 0 1 6.024-2.675V106c0-17.897-10.504-33.385-25.67-40.629"
            data-original="#000000" />
    </symbol>

    <symbol id="location-pointer" viewBox="0 0 24 24">
        <path
            d="M12 0C7.038 0 3 4.066 3 9.065c0 7.103 8.154 14.437 8.501 14.745a.749.749 0 0 0 .998.001C12.846 23.502 21 16.168 21 9.065 21 4.066 16.962 0 12 0m0 14c-2.757 0-5-2.243-5-5s2.243-5 5-5 5 2.243 5 5-2.243 5-5 5"
            data-original="#000000" />
    </symbol>

    <symbol id="facebook" viewBox="0 0 512 512">
        <path
            d="M512 256C512 114.6 397.4 0 256 0S0 114.6 0 256s114.6 256 256 256c1.5 0 3 0 4.5-.1V312.7h-55v-64.1h55v-47.2c0-54.7 33.4-84.5 82.2-84.5 23.4 0 43.5 1.7 49.3 2.5v57.2h-33.6c-26.5 0-31.7 12.6-31.7 31.1v40.8h63.5l-8.3 64.1h-55.2v189.5C433.7 471.4 512 372.9 512 256"
            data-original="#000000" />
    </symbol>

    <symbol id="instagram" viewBox="0 0 511 511.9">
        <path
            d="M510.95 150.5c-1.2-27.2-5.598-45.898-11.9-62.102-6.5-17.199-16.5-32.597-29.6-45.398-12.802-13-28.302-23.102-45.302-29.5-16.296-6.3-34.898-10.7-62.097-11.898C334.648.3 325.949 0 256.449 0s-78.199.3-105.5 1.5c-27.199 1.2-45.898 5.602-62.097 11.898-17.204 6.5-32.602 16.5-45.403 29.602-13 12.8-23.097 28.3-29.5 45.3-6.3 16.302-10.699 34.9-11.898 62.098C.75 177.801.449 186.5.449 256s.301 78.2 1.5 105.5c1.2 27.2 5.602 45.898 11.903 62.102 6.5 17.199 16.597 32.597 29.597 45.398 12.801 13 28.301 23.102 45.301 29.5 16.3 6.3 34.898 10.7 62.102 11.898 27.296 1.204 36 1.5 105.5 1.5s78.199-.296 105.5-1.5c27.199-1.199 45.898-5.597 62.097-11.898a130.934 130.934 0 0 0 74.903-74.898c6.296-16.301 10.699-34.903 11.898-62.102 1.2-27.3 1.5-36 1.5-105.5s-.102-78.2-1.3-105.5m-46.098 209c-1.102 25-5.301 38.5-8.801 47.5-8.602 22.3-26.301 40-48.602 48.602-9 3.5-22.597 7.699-47.5 8.796-27 1.204-35.097 1.5-103.398 1.5s-76.5-.296-103.403-1.5c-25-1.097-38.5-5.296-47.5-8.796C94.551 451.5 84.45 445 76.25 436.5c-8.5-8.3-15-18.3-19.102-29.398-3.5-9-7.699-22.602-8.796-47.5-1.204-27-1.5-35.102-1.5-103.403s.296-76.5 1.5-103.398c1.097-25 5.296-38.5 8.796-47.5C61.25 94.199 67.75 84.1 76.352 75.898c8.296-8.5 18.296-15 29.398-19.097 9-3.5 22.602-7.7 47.5-8.801 27-1.2 35.102-1.5 103.398-1.5 68.403 0 76.5.3 103.403 1.5 25 1.102 38.5 5.3 47.5 8.8 11.097 4.098 21.199 10.598 29.398 19.098 8.5 8.301 15 18.301 19.102 29.403 3.5 9 7.699 22.597 8.8 47.5 1.2 27 1.5 35.097 1.5 103.398s-.3 76.301-1.5 103.301zm0 0"
            data-original="#000000" />
        <path
            d="M256.45 124.5c-72.598 0-131.5 58.898-131.5 131.5s58.902 131.5 131.5 131.5c72.6 0 131.5-58.898 131.5-131.5s-58.9-131.5-131.5-131.5m0 216.8c-47.098 0-85.302-38.198-85.302-85.3s38.204-85.3 85.301-85.3c47.102 0 85.301 38.198 85.301 85.3s-38.2 85.3-85.3 85.3m167.402-222c0 16.954-13.747 30.7-30.704 30.7-16.953 0-30.699-13.746-30.699-30.7 0-16.956 13.746-30.698 30.7-30.698 16.956 0 30.703 13.742 30.703 30.699zm0 0"
            data-original="#000000" />
    </symbol>

    <symbol id="whatsapp" viewBox="0 0 24 24">
        <path
            d="m17.507 14.307-.009.075c-2.199-1.096-2.429-1.242-2.713-.816-.197.295-.771.964-.944 1.162-.175.195-.349.21-.646.075-.3-.15-1.263-.465-2.403-1.485-.888-.795-1.484-1.77-1.66-2.07-.293-.506.32-.578.878-1.634.1-.21.049-.375-.025-.524-.075-.15-.672-1.62-.922-2.206-.24-.584-.487-.51-.672-.51-.576-.05-.997-.042-1.368.344-1.614 1.774-1.207 3.604.174 5.55 2.714 3.552 4.16 4.206 6.804 5.114.714.227 1.365.195 1.88.121.574-.091 1.767-.721 2.016-1.426.255-.705.255-1.29.18-1.425-.074-.135-.27-.21-.57-.345"
            data-original="#000000" />
        <path
            d="M20.52 3.449C12.831-3.984.106 1.407.101 11.893c0 2.096.549 4.14 1.595 5.945L0 24l6.335-1.652c7.905 4.27 17.661-1.4 17.665-10.449 0-3.176-1.24-6.165-3.495-8.411zm1.482 8.417c-.006 7.633-8.385 12.4-15.012 8.504l-.36-.214-3.75.975 1.005-3.645-.239-.375c-4.124-6.565.614-15.145 8.426-15.145a9.865 9.865 0 0 1 7.021 2.91 9.788 9.788 0 0 1 2.909 6.99"
            data-original="#000000" />
    </symbol>


    <symbol id="double-downward-arrow" viewBox="165 175 180 160">
        <path
            d="m322 246.54-66 66-66-66a10 10 0 0 0-14.14 14.14l67.86 67.87a17.33 17.33 0 0 0 24.48 0l67.86-67.87A10 10 0 0 0 322 246.54"
            data-original="#000000" />
        <path
            d="M243.76 263.33a17.33 17.33 0 0 0 24.48 0l67.86-67.87a10 10 0 0 0-14.1-14.14l-66 66-66-66a10 10 0 1 0-14.14 14.14z"
            data-original="#000000" />
    </symbol>

    <symbol id="maximizer" viewBox="0 0 10 10" fill="none">
        <!-- Top-right -->
        <path d="M5.28564 0.75H8.74983C8.74983 0.75 8.74983 2.64773 8.74983 4.21418" stroke="black" stroke-width="1.5"
            stroke-linecap="round" />
        <!-- Bottom-left -->
        <path d="M4.33008 8.75H0.750184C0.750184 8.75 0.750184 6.91169 0.750184 5.39429" stroke="black"
            stroke-width="1.5" stroke-linecap="round" />


    </symbol>

    <symbol id="minimizer" viewBox="0 0 512 512">
        <path
            d="m292.2 256 109.9-109.9c10-10 10-26.2 0-36.2s-26.2-10-36.2 0L256 219.8 146.1 109.9c-10-10-26.2-10-36.2 0s-10 26.2 0 36.2L219.8 256 109.9 365.9c-10 10-10 26.2 0 36.2 5 5 11.55 7.5 18.1 7.5s13.1-2.5 18.1-7.5L256 292.2l109.9 109.9c5 5 11.55 7.5 18.1 7.5s13.1-2.5 18.1-7.5c10-10 10-26.2 0-36.2z"
            data-original="#000000" />
    </symbol>

    <symbol id="play" viewBox="0 0 21 23">
        <path
            d="M0 11.3517V3.97602C0 0.920184 3.30864 -0.991374 5.952 0.53876L12.3431 4.22882L18.7342 7.91888C21.3819 9.44458 21.3819 13.2677 18.7342 14.7934L12.3431 18.4835L5.952 22.1735C3.30864 23.6948 0 21.7877 0 18.7318V11.3517Z" />
    </symbol>

    <symbol id="pause" viewBox="0 0 32 32">
        <path
            d="M14 5v22a3 3 0 0 1-3 3H8a3 3 0 0 1-3-3V5a3 3 0 0 1 3-3h3a3 3 0 0 1 3 3m10-3h-3a3 3 0 0 0-3 3v22a3 3 0 0 0 3 3h3a3 3 0 0 0 3-3V5a3 3 0 0 0-3-3">
        </path>
    </symbol>

    <symbol id="share" viewBox="0 0 28 28">
        <path fill-rule="evenodd" clip-rule="evenodd"
            d="M9.82189 16.2263L15.7289 10.3183C15.9165 10.1308 16.171 10.0255 16.4362 10.0256C16.7015 10.0257 16.9559 10.1312 17.1434 10.3188C17.3309 10.5064 17.4362 10.7609 17.4361 11.0262C17.436 11.2914 17.3305 11.5458 17.1429 11.7333L11.2359 17.6403L15.8729 26.3993C16.0562 26.7454 16.337 27.0301 16.6806 27.218C17.0242 27.4059 17.4154 27.4889 17.8057 27.4565C18.196 27.4241 18.5682 27.2779 18.8761 27.0359C19.184 26.7939 19.4141 26.4669 19.5379 26.0953L27.3589 2.63331C27.4768 2.28088 27.4942 1.90257 27.409 1.54084C27.3238 1.1791 27.1395 0.848273 26.8767 0.585494C26.6139 0.322714 26.2831 0.138389 25.9214 0.0532134C25.5596 -0.0319622 25.1813 -0.0146154 24.8289 0.103306L1.36589 7.92431C0.994717 8.04854 0.668132 8.2789 0.426564 8.58687C0.184996 8.89484 0.0390539 9.26689 0.00680469 9.65697C-0.0254445 10.047 0.0574159 10.438 0.245127 10.7815C0.432839 11.1249 0.717158 11.4058 1.06289 11.5893L9.82189 16.2263Z" />
    </symbol>

    <symbol id="more-options" viewBox="0 0 26 6">
        <path
            d="M12.595 0C10.9925 0 9.68846 1.30407 9.68846 2.90654C9.68846 4.50901 10.9925 5.81308 12.595 5.81308C14.1975 5.81308 15.5015 4.50901 15.5015 2.90654C15.5015 1.30407 14.1975 0 12.595 0ZM2.90654 0C1.30407 0 0 1.30407 0 2.90654C0 4.50901 1.30407 5.81308 2.90654 5.81308C4.50901 5.81308 5.81308 4.50901 5.81308 2.90654C5.81308 1.30407 4.50901 0 2.90654 0ZM22.2835 0C20.681 0 19.3769 1.30407 19.3769 2.90654C19.3769 4.50901 20.681 5.81308 22.2835 5.81308C23.8859 5.81308 25.19 4.50901 25.19 2.90654C25.19 1.30407 23.8859 0 22.2835 0Z" />
    </symbol>

    <symbol id="tooltip-arrow" viewBox="0 0 17 15">
        <path
            d="M6.33313 13.5C7.10293 14.8333 9.02744 14.8333 9.79724 13.5L15.8594 3C16.6292 1.66667 15.667 0 14.1274 0H2.00301C0.463408 0 -0.498844 1.66667 0.270957 3L6.33313 13.5Z" />
    </symbol>
    <symbol id="search" viewBox="0 0 20 20" fill="none">
        <circle cx="8.5" cy="8.5" r="4.75" stroke="currentColor" strokeWidth="1.8" />
        <path d="m12 12 4.1 4.1" stroke="currentColor" strokeWidth="1.8" strokeLinecap="round" />
    </symbol>
    <symbol id="down-arrow" viewBox="0 0 16 16" fill="none">
        <path d="m4 6 4 4 4-4" stroke="currentColor" strokeWidth="1.7" strokeLinecap="round" strokeLinejoin="round" />
    </symbol>

</svg>